<svg xmlns="http://www.w3.org/2000/svg" xmlns:xlink="http://www.w3.org/1999/xlink" xmlns:svgjs="http://svgjs.dev/svgjs" version="1.1" viewBox="125 170.72 750 258.56"><g><circle r="166.66666666666666" cx="327.81814066569007" cy="350.04037118123966" fill="#2563eb" transform="matrix(0.7756678646762571,0,0,0.7756678646762574,0,28.484953455091258)"/><path d="M373.27179431990464 383.556106965145L373.27179431990464 383.556106965145Q373.27179431990464 401.1943871545713 357.36451286311234 413.1024646428642Q341.45723140632003 425.0403869368922 320.92400506059187 425.0403869368922Q300.42062352059884 425.0403869368922 287.07999535702254 414.3857912894722Q273.7692119991813 403.7610404477873 273.7692119991813 394.30023702977013L273.7692119991813 394.30023702977013Q273.7692119991813 387.853758990995 277.64903674474044 387.853758990995L277.64903674474044 387.853758990995Q281.08118940427346 387.853758990995 291.1687337427271 398.18006177532925L291.1687337427271 398.18006177532925Q295.04855848828623 401.8211280750078 301.58457094426655 405.0443670943953Q308.15042820598194 408.2676061137829 315.4624056110741 408.2676061137829L315.4624056110741 408.2676061137829Q330.50418770154937 408.2676061137829 342.2033515496968 400.53780142839975Q353.93236020357926 392.80799674301664 353.93236020357926 383.76502060529043L353.93236020357926 383.76502060529043Q353.93236020357926 377.97512829268686 346.1727107124611 368.9619969606957Q338.442906027078 359.9190208229695 329.10148183200107 351.86092327450064Q319.76005763692416 343.80282572603176 312.03025295154106 334.5807807538951Q304.2706034604228 325.32889097602344 304.2706034604228 319.95682594371084Q304.2706034604228 314.58476091139823 306.41942947334786 308.55611015291413Q308.5682554862729 302.55730420016505 311.164753585224 299.75189246106845L311.164753585224 299.75189246106845Q319.55114399677865 290.52984748893186 337.2789586034102 282.7701979978136Q355.0067732100418 275.0403933124305 367.03422992127497 275.0403933124305L367.03422992127497 275.0403933124305Q373.27179431990464 275.0403933124305 377.56944634575467 279.1291316981351Q381.86709837160475 283.21787008383967 381.86709837160475 287.72443574983527L381.86709837160475 287.72443574983527Q381.86709837160475 289.8732617627603 377.33068789987414 291.15658840936834Q372.82412223387854 292.4399150559763 363.69161167894714 294.4992066516961Q354.55910112401574 296.52865344168094 347.48588216480414 299.3340651807775L347.48588216480414 299.3340651807775Q322.7743830161662 308.79486859879466 322.7743830161662 317.59908629064034L322.7743830161662 317.59908629064034Q322.7743830161662 322.31456559678134 347.90370944509516 344.0117393661772L347.90370944509516 344.0117393661772Q357.5734265032578 352.3981297777319 365.4226104115812 363.47055270544286Q373.27179431990464 374.5429756331538 373.27179431990464 383.556106965145Z " fill="#ffffff" transform="matrix(0.7756678646762571,0,0,0.7756678646762574,0,28.484953455091258)"/><path d="M645.0630088627922 358.82417417458703L645.0630088627922 358.82417417458703Q645.0630088627922 370.7443028186691 634.3127067184678 378.79190236010527Q623.5624045741432 386.8596713239511 609.6858419563284 386.8596713239511Q595.8294487609234 386.8596713239511 586.8137169438257 379.65918752371874Q577.8181545491377 372.478873145896 577.8181545491377 366.0851662420482L577.8181545491377 366.0851662420482Q577.8181545491377 361.7285710015715 580.4401794623875 361.7285710015715L580.4401794623875 361.7285710015715Q582.7596630394933 361.7285710015715 589.5769278139428 368.70719115529806L589.5769278139428 368.70719115529806Q592.1989527271928 371.16786068927104 596.6160562348983 373.3461583095094Q601.0533291650136 375.5244559297478 605.9948376553691 375.5244559297478L605.9948376553691 375.5244559297478Q616.1602265498148 375.5244559297478 624.0666401343835 370.3005755256576Q631.993223141362 365.07669512156747 631.993223141362 358.9653601314543L631.993223141362 358.9653601314543Q631.993223141362 355.0524921839891 626.7491733148623 348.96132661628553Q621.5252929107721 342.84999162617237 615.2122636965628 337.40424757557645Q608.8992344823534 331.95850352498053 603.6753540782634 325.7261520004097Q598.4313042517635 319.4736310534292 598.4313042517635 315.8431350196986Q598.4313042517635 312.212638985968 599.883502665256 308.13841565922587Q601.3357010787481 304.0843617548934 603.0904408283845 302.1884360483896L603.0904408283845 302.1884360483896Q608.7580485254862 295.95608452381873 620.7386854367971 290.712034697319Q632.7193223481081 285.48815429322883 640.8475995791828 285.48815429322883L640.8475995791828 285.48815429322883Q645.0630088627922 285.48815429322883 647.9674056897768 288.251365163346Q650.8718025167611 291.0145760334632 650.8718025167611 294.06015881731497L650.8718025167611 294.06015881731497Q650.8718025167611 295.5123572308072 647.8060503104998 296.37964239442067Q644.760467526648 297.2469275580341 638.5886242693059 298.6386177042975Q632.416781011964 300.0101384281512 627.6366279008853 301.906064134655L627.6366279008853 301.906064134655Q610.9363461457247 308.2997710385028 610.9363461457247 314.24975064933903L610.9363461457247 314.24975064933903Q610.9363461457247 317.43651939005815 627.91899981462 332.09968948184786L627.91899981462 332.09968948184786Q634.453892675335 337.7672971789495 639.7584507690636 345.25015289291645Q645.0630088627922 352.73300860688346 645.0630088627922 358.82417417458703ZM675.8415474598638 280.7080011821502L675.8415474598638 280.7080011821502Q675.8415474598638 275.0403934850485 679.3308575367272 275.0403934850485L679.3308575367272 275.0403934850485Q682.0940684068445 275.0403934850485 685.200159457925 279.39698872552526Q688.3264199314152 283.753583966002 688.3264199314152 287.8076378703345L688.3264199314152 287.8076378703345Q688.3264199314152 297.2469275580341 683.6067750875656 319.97786661366956Q678.8871302437157 342.70880566930504 671.3437662625199 365.3590670353021L671.3437662625199 365.3590670353021Q685.8657503974422 339.07830963557444 695.6680896885149 327.3800446379981Q705.4704289795876 315.7019490628313 712.4288797109044 315.7019490628313L712.4288797109044 315.7019490628313Q716.2207311239121 315.7019490628313 721.2227478814965 322.23684192354636Q726.2247646390807 328.77173478426147 726.2247646390807 335.3066276449765Q726.2247646390807 341.8415205056916 722.5942686053503 354.91130622712177L722.5942686053503 354.91130622712177Q713.5987062106623 387.7269564875645 705.6116149364549 387.7269564875645L705.6116149364549 387.7269564875645Q702.4248461957358 387.7269564875645 702.4248461957358 383.37036124708777Q702.4248461957358 379.01376600661104 705.8939868501894 368.70719115529806L705.8939868501894 368.70719115529806Q713.5987062106623 346.19811574616836 713.5987062106623 338.3522104288283L713.5987062106623 338.3522104288283Q713.5987062106623 335.73018551557846 712.2876937540372 333.9956151883516Q710.9766812974123 332.2610448611248 709.100925013318 332.2610448611248Q707.2049993068143 332.2610448611248 704.4417884366973 334.2779871020862Q701.6987469889897 336.31509876545726 697.7657096191148 341.3977932126801L697.7657096191148 341.3977932126801Q692.8242011287592 347.9326860733952 687.5398124574402 356.0609633044698Q682.2352543637118 364.20940995795405 681.1461055535925 365.86330259554245Q680.0569567434733 367.5373646555404 677.3744235629946 371.8939598960171Q674.6717209601062 376.25055513649386 673.380877925891 378.3683444895034Q672.069865469266 380.4659644201033 670.1739397627623 382.92663395407624L670.1739397627623 382.92663395407624Q666.8459850651759 387.7269564875645 665.0912453155395 387.7269564875645Q663.3566749883125 387.7269564875645 660.4522781613281 384.45951005720696Q657.5478813343436 381.1920636268494 657.5478813343436 378.9330883169726Q657.5478813343436 376.6942824295054 659.1412657047031 370.4417614825249L659.1412657047031 370.4417614825249Q666.4022577721644 342.56761971243776 668.2981834786681 332.2610448611248L668.2981834786681 332.2610448611248Q675.8415474598638 294.5038861103265 675.8415474598638 280.7080011821502ZM780.3998332313053 340.3893220921994L780.3998332313053 340.3893220921994Q780.3998332313053 335.44781360184385 778.8064488609458 331.0105406717287Q777.2130644905861 326.5934371640231 774.1473122843248 324.55632550065206L774.1473122843248 324.55632550065206Q764.1432787691559 327.31953637076924 756.9427949689235 340.0262724888263Q749.7624805911008 352.73300860688346 749.7624805911008 363.90686862180985Q749.7624805911008 375.10089805914583 755.2687329089257 377.8439395068534L755.2687329089257 377.8439395068534Q765.7366631395156 375.826997265892 773.0581634742056 363.5438190184368Q780.3998332313053 351.2808101933912 780.3998332313053 340.3893220921994ZM742.2796248771339 341.70033454882434Q747.2816416347183 330.36511915462097 755.4905965554314 323.02344939752135Q763.6995514761444 315.7019490628313 772.3320642674595 315.7019490628313Q780.9847464811841 315.7019490628313 786.793540135153 323.02344939752135Q792.6023337891219 330.36511915462097 792.6023337891219 340.89355765243977Q792.6023337891219 351.42199615025845 787.519639341899 362.3941619410888Q782.4369448946762 373.3461583095094 773.5018907672171 380.54664210974175Q764.566836639758 387.7269564875645 754.5426337021796 387.7269564875645L754.5426337021796 387.7269564875645Q747.140455677851 387.7269564875645 742.1989471874955 380.9096917131148Q737.2776081195494 374.0722575162555 737.2776081195494 363.5438190184368Q737.2776081195494 353.015380520618 742.2796248771339 341.70033454882434ZM849.8229851651982 315.2582217698198L849.8229851651982 315.2582217698198Q856.055336689769 315.2582217698198 860.6337955767516 323.2453130440271Q865.212254463734 331.23240431823444 865.212254463734 339.72373115268215Q865.212254463734 348.23522740953945 860.2707459733784 356.7265542439871Q855.3292374830229 365.21788107843474 848.0682454155616 371.8939598960171Q840.8072533481005 378.57003871359956 832.0335545999181 383.00731164371473Q823.2396864293263 387.4445845738299 815.8375084049977 387.4445845738299L815.8375084049977 387.4445845738299Q812.9331115780134 387.4445845738299 810.3110866647634 386.71848536708376L810.3110866647634 386.71848536708376Q809.7261734148846 389.17915490105673 808.2739750013924 395.5728618049045Q806.8217765879002 401.96656870875233 805.8133054674194 406.1618085699521Q804.8048343469387 410.37721785356155 803.4938218903138 415.17754038704976L803.4938218903138 415.17754038704976Q800.8717969770638 425.0403879453512 798.8346853136928 425.0403879453512Q796.8177430727313 425.0403879453512 794.5587677628545 421.9342968942706Q792.2997924529778 418.80803642078035 792.2997924529778 416.3271974643978Q792.2997924529778 413.8665279304248 796.9589290295986 395.12913451189297L796.9589290295986 395.12913451189297Q810.8959999146422 338.6345823425629 810.8959999146422 319.02990376041765L810.8959999146422 319.02990376041765Q810.8959999146422 314.673308519941 814.0827686553613 314.673308519941L814.0827686553613 314.673308519941Q816.7047935686113 314.673308519941 820.4159672919803 318.52566820017734Q824.1069715929397 322.3780278804137 824.1069715929397 327.016995034625L824.1069715929397 327.016995034625Q824.1069715929397 329.3566480341403 823.5220583430608 332.09968948184786L823.5220583430608 332.09968948184786Q836.4506581076238 315.2582217698198 849.8229851651982 315.2582217698198ZM812.9331115780134 376.1093691796266L814.3853099915056 376.1093691796266Q822.0698599295687 376.1093691796266 831.0049140570278 370.88548877553643Q839.9399681844872 365.6616083714463 846.2529973986965 357.0089261577217Q852.5660266129058 348.3764133664067 852.5660266129058 339.8044088423205L852.5660266129058 339.8044088423205Q852.5660266129058 327.7430942413711 846.9185883382137 327.7430942413711Q841.250980641112 327.7430942413711 831.5898273069066 337.4849252652149Q821.9286739727014 347.20658686664905 816.2610662755998 362.7572115444618L816.2610662755998 362.7572115444618L812.9331115780134 376.1093691796266ZM935.5026915612403 285.6293402500961L935.5026915612403 285.6293402500961Q939.2743735518383 285.6293402500961 943.2679191889418 290.4296627835844Q947.2614648260457 295.22998531707265 947.2614648260457 298.3360763681533Q947.2614648260457 301.4623368416435 946.1723160159264 301.4623368416435Q945.0831672058072 301.4623368416435 942.0375844219556 300.3731880315243Q938.971832215694 299.2840392214051 936.511162681721 299.2840392214051L936.511162681721 299.2840392214051Q930.8435549846193 299.2840392214051 922.7959554431833 305.0928328753741Q914.7281864793375 310.90162652934305 907.5478721015148 319.4736310534292Q900.3473883012824 328.0456355775153 895.2646938540596 338.997631945936Q890.1819994068368 349.9697977367662 890.1819994068368 357.95688901097355Q890.1819994068368 365.9439802851809 894.3167310008076 369.65515400854997Q898.4716320171882 373.3461583095094 905.1477108347707 373.3461583095094Q911.823789652353 373.3461583095094 918.943595762947 371.3897243357768Q926.0634018735408 369.4332903620442 930.5611830708848 366.95245140566163L930.5611830708848 366.95245140566163Q942.1787703788228 360.72009988109073 943.3284274561707 360.72009988109073L943.3284274561707 360.72009988109073Q945.8092664125533 360.72009988109073 945.8092664125533 363.9875463114483Q945.8092664125533 367.25499274180584 939.133187594971 372.7007367924017Q932.436939354979 378.1464808429976 922.5740917966774 382.50307608347435Q912.6910748159663 386.8596713239511 904.8451694986264 386.8596713239511L904.8451694986264 386.8596713239511Q894.6797806041808 386.8596713239511 885.6842182094928 378.0658031533592Q876.6886558148045 369.2921044051769 876.6886558148045 358.6829882177197L876.6886558148045 358.6829882177197Q876.6886558148045 345.02828924641074 885.6035405198542 327.82377193100956Q894.5385946473133 310.61925461560844 908.5563432219955 298.1343821440571Q922.5740917966774 285.6293402500961 935.5026915612403 285.6293402500961ZM997.362310091528 315.7019490628313Q1003.897202952243 315.7019490628313 1009.4034552700676 322.2973501907752Q1014.929877010302 328.91292074112874 1014.929877010302 334.2174788348574Q1014.929877010302 339.522036928586 1011.2993809765716 345.02828924641074L1011.2993809765716 345.02828924641074Q1013.0339513037983 347.20658686664905 1013.0339513037983 348.7999712370086L1013.0339513037983 348.7999712370086Q1013.0339513037983 352.87419456375073 1011.218703286933 362.7572115444618Q1009.4034552700676 372.62005910276326 1009.0404056666947 375.66564188661505Q1008.6773560633216 378.7313940928765 1008.394984149587 380.54664210974175Q1008.1126122358525 382.361890126607 1007.6688849428409 384.0964604538339L1007.6688849428409 384.0964604538339Q1007.0839716929621 387.7269564875645 1005.0468600295909 387.7269564875645L1005.0468600295909 387.7269564875645Q1002.4450045387508 387.7269564875645 1000.7709424787528 383.148497600582Q999.0968804187547 378.57003871359956 998.8145085050202 371.3090466461383L998.8145085050202 371.3090466461383Q985.8859087404572 387.7269564875645 974.8532346823982 387.7269564875645L974.8532346823982 387.7269564875645Q968.1771558648157 387.7269564875645 961.7027712713297 381.998840523234Q955.248556100253 376.25055513649386 955.248556100253 370.1593895687903L955.248556100253 370.1593895687903Q955.248556100253 361.4461990878369 961.6422630041008 348.59827701291243Q968.0158004855388 335.73018551557846 978.1811893799846 325.7261520004097Q988.3465782744303 315.7019490628313 997.362310091528 315.7019490628313L997.362310091528 315.7019490628313ZM1004.0383889091103 341.3977932126801L1004.0383889091103 341.2566072558128Q1004.0383889091103 327.7430942413711 998.6733225481529 327.7430942413711L998.6733225481529 327.7430942413711Q993.0057148510513 327.7430942413711 985.4421814474457 335.8108632052169Q977.8988174662499 343.8786321690627 972.6749370621598 354.04402106350835Q967.4510566580697 364.20940995795405 967.4510566580697 370.1593895687903L967.4510566580697 370.1593895687903Q967.4510566580697 372.62005910276326 969.4679988990312 374.152935205894Q971.5051105624021 375.66564188661505 974.2683214325194 375.66564188661505L974.2683214325194 375.66564188661505Q981.085586206969 375.66564188661505 989.6575907310552 366.44821584542126Q998.2295952551414 357.23078980422747 1001.5777193751372 344.01981812593L1001.5777193751372 344.01981812593Q1002.0012772457393 341.8415205056916 1004.0383889091103 341.3977932126801L1004.0383889091103 341.3977932126801ZM1035.5430267129282 333.4107019384728L1035.5430267129282 333.4107019384728L1035.1194688423261 322.519213837281Q1035.1194688423261 315.7019490628313 1038.306237583045 315.7019490628313L1038.306237583045 315.7019490628313Q1041.0694484531623 315.7019490628313 1043.6107956767737 319.2517674069234Q1046.1521429003851 322.8217551734252 1046.1521429003851 327.6825859741423Q1046.1521429003851 332.54341677485934 1045.8697709866506 335.0040863088323L1045.8697709866506 335.0040863088323Q1058.4958294150692 315.8431350196986 1069.8310448092725 315.8431350196986L1069.8310448092725 315.8431350196986Q1076.930681497457 315.8431350196986 1076.930681497457 319.33244509656186L1076.930681497457 319.33244509656186Q1076.930681497457 321.06701542378875 1075.3372971270974 322.519213837281Q1073.7439127567377 323.9714122507732 1070.2546026798746 325.86733795727696L1070.2546026798746 325.86733795727696Q1062.5700527418112 329.19529265486335 1057.265494648083 336.0932351189515Q1051.9609365543542 342.99117758303964 1048.6128124343581 351.7043680639931Q1045.2848577367718 360.41755854494653 1043.3284237630392 366.3877075781924Q1041.3518203668968 372.33768718902866 1040.3433492464164 375.66564188661505Q1039.3348781259356 379.01376600661104 1038.0238656693105 382.20053474733015L1038.0238656693105 382.20053474733015Q1035.704382092205 388.0093284012991 1032.6386298859434 388.0093284012991L1032.6386298859434 388.0093284012991Q1030.1779603519708 388.0093284012991 1028.6450842488398 385.1856092639531Q1027.132377568119 382.361890126607 1027.132377568119 379.65918752371874Q1027.132377568119 376.97665434324 1029.593047102092 368.98956306903267L1029.593047102092 368.98956306903267Q1035.5430267129282 350.69589694351237 1035.5430267129282 333.4107019384728ZM1091.1702937186446 373.2049723526421L1091.1702937186446 373.2049723526421Q1091.1702937186446 375.9681832227593 1094.3570624593635 375.9681832227593L1094.3570624593635 375.9681832227593Q1099.8834841995981 375.9681832227593 1107.789897784167 372.84192274926903Q1115.7164807911454 369.7156622757788 1116.5837659547587 369.7156622757788L1116.5837659547587 369.7156622757788Q1119.2057908680085 369.7156622757788 1119.2057908680085 372.478873145896L1119.2057908680085 372.478873145896Q1119.2057908680085 376.6942824295054 1110.5531086542842 382.20053474733015Q1101.920595862969 387.7269564875645 1094.8814674420137 387.7269564875645Q1087.8221695986485 387.7269564875645 1083.1832024444375 383.87459680732815Q1078.544235290226 380.0222371270918 1078.544235290226 375.9681832227593Q1078.544235290226 371.8939598960171 1080.2788056174527 365.58093068180784Q1082.0133759446799 359.2679014675985 1085.2808223750371 348.88064892664704Q1088.5482688053949 338.49339638569563 1090.4441945118983 331.6761316112459L1090.4441945118983 331.6761316112459Q1083.6269297374488 333.2695159816055 1081.2872767379336 333.2695159816055Q1078.967793160828 333.2695159816055 1076.7289872733609 330.86935471486134Q1074.470011963484 328.46919344811727 1074.470011963484 326.2908958278789L1074.470011963484 326.2908958278789Q1074.470011963484 322.8217551734252 1093.3485913388831 319.6148170102965L1093.3485913388831 319.6148170102965Q1095.970616252133 307.57367183175666 1095.970616252133 298.2755681009244L1095.970616252133 298.2755681009244Q1095.970616252133 293.9189728604477 1098.8750130791173 293.9189728604477L1098.8750130791173 293.9189728604477Q1101.3356826130903 293.9189728604477 1104.966178646821 297.0452333339379Q1108.5966746805516 300.15132438501854 1108.5966746805516 304.0843617548934Q1108.5966746805516 307.9972297023586 1106.1360051465786 317.88024668306963L1106.1360051465786 317.88024668306963Q1114.4054683345207 317.15414747632354 1119.346976824876 317.15414747632354L1119.346976824876 317.15414747632354Q1128.0601673058295 317.15414747632354 1128.0601673058295 320.9258294669214L1128.0601673058295 320.9258294669214Q1128.0601673058295 323.1041270871598 1123.3405224619796 324.55632550065206Q1118.6208776181302 326.0085239141443 1103.5139802333288 329.0541066979961L1103.5139802333288 329.0541066979961Q1100.468397449477 340.53050804906667 1095.8092608728562 355.27435583049487Q1091.1702937186446 370.018203611923 1091.1702937186446 373.2049723526421Z " fill="#2563eb" transform="matrix(0.7756678646762571,0,0,0.7756678646762574,0,28.484953455091258)"/></g></svg>