<svg xmlns="http://www.w3.org/2000/svg" xmlns:xlink="http://www.w3.org/1999/xlink" xmlns:svgjs="http://svgjs.dev/svgjs" version="1.1" viewBox="125 181.39 750 237.23"><g><rect width="333.3333333333333" height="333.3333333333333" rx="13.333333333333334" ry="13.333333333333334" y="197.86243626604232" fill="#2563eb" transform="matrix(0.7116821866435185,0,0,0.7116821866435183,0,40.5711387539385)" x="175.64024353027344"/><path d="M341.3652410211241 439.52910356370893L341.3652410211241 439.52910356370893Q325.0816792566664 439.52910356370893 314.7668251852306 435.3568030404315Q304.4519711137947 431.1845025171541 299.5263385515922 424.0857967657446Q294.62968029857905 416.987091014335 294.62968029857905 408.6424899677802L294.62968029857905 408.6424899677802Q294.62968029857905 404.67300960882875 296.1073700672398 401.6596814531284Q297.5560855267112 398.6173789882386 300.8881310834952 397.284560765525Q304.2201766402793 395.9227682336219 310.07298709654344 396.7630232001153L310.07298709654344 396.7630232001153Q309.43555229437607 398.6173789882386 309.3486293668078 400.81942648663505Q309.23273213005007 403.02147398503143 309.43555229437607 405.5132645753221L309.43555229437607 405.5132645753221Q309.87016693221744 413.452225293225 313.9265702187372 419.27606144029977Q318.01194781444633 425.12887189656396 325.4003966577501 428.460917453348Q332.81781981024335 431.7929630101321 343.0457509541109 431.7929630101321L343.0457509541109 431.7929630101321Q356.37393318124714 431.7929630101321 364.83443146455966 425.4475892976476Q373.29492974787223 419.07324127597377 373.29492974787223 406.3535195418155L373.29492974787223 406.3535195418155Q373.29492974787223 398.0089184952607 369.41237231648904 392.06918511142817Q365.55878919429534 386.10047741840634 358.1703403509915 380.7981788367413Q350.7529171984984 375.46690594588677 339.9165255616528 369.643069798812L339.9165255616528 369.643069798812Q328.0080844847985 362.7471842117285 318.93912570850796 356.6046306635701Q309.87016693221744 350.4331028062222 304.8576114424467 342.610039325077Q299.84505595267586 334.7869758439319 299.84505595267586 323.7477640427603L299.84505595267586 323.7477640427603Q299.84505595267586 311.43368263725404 305.900686573266 304.01625948476084Q311.9563171938562 296.627810641457 322.0683511009661 293.06397061115763Q332.1803850080759 289.52910489004756 344.08882608493025 289.52910489004756L344.08882608493025 289.52910489004756Q362.6323839661633 289.52910489004756 374.10621040517617 296.3090932403734Q385.5800368441891 303.0890815906992 385.5800368441891 315.4031629962055L385.5800368441891 315.4031629962055Q385.5800368441891 319.14084888164155 383.81260398363406 321.7485367086899Q382.04517112307906 324.3562245357383 377.23543579763424 324.9936593379057L377.23543579763424 324.9936593379057Q374.54082504301755 325.83391430439906 370.7741648483921 324.9936593379057L370.7741648483921 324.9936593379057Q371.41159965055954 322.704688911941 371.2957024138018 320.38674417678686Q371.20877948623354 318.09777375082217 370.7741648483921 316.2144436535094L370.7741648483921 316.2144436535094Q370.16570435541416 310.18778734210866 366.5149413975464 306.0154868188313Q362.86417843967865 301.84318629555383 356.6057276547625 299.5252415603997Q350.3472768698464 297.236271134435 342.4083161519435 297.236271134435L342.4083161519435 297.236271134435Q336.14986536702736 297.236271134435 330.0073118188689 299.23549846850545Q323.8357839615211 301.20575149338646 319.77938067500133 305.7836923453159Q315.6940030792922 310.39060750643466 315.6940030792922 318.53238838866355L315.6940030792922 318.53238838866355Q315.6940030792922 326.87698943521843 319.86630360256964 332.8167228190508Q324.0386041258471 338.75645620288327 331.571924515098 343.7690116926541Q339.0762705951595 348.7815671824249 349.304201739027 354.40258316517367L349.304201739027 354.40258316517367Q360.5462337045245 360.2553936214378 369.7310897175728 366.80358749824825Q378.915945730621 373.3807556842481 384.45003878580144 381.7253567308029Q389.98413184098195 390.0699577773578 389.98413184098195 401.7466043806967L389.98413184098195 401.7466043806967Q389.98413184098195 408.8453101321062 387.4633669415018 415.625298482432Q384.9715763512112 422.40528683275784 379.11876589494693 427.73655972361234Q373.29492974787223 433.03885830527736 363.9941764980663 436.2839809344932Q354.72239755744977 439.52910356370893 341.3652410211241 439.52910356370893Z " fill="#ffffff" transform="matrix(0.7116821866435185,0,0,0.7116821866435183,0,40.5711387539385)"/><path d="M627.5259653004786 406.3624866894322L627.5259653004786 406.3624866894322Q615.2549730158748 406.3624866894322 607.4818889352362 403.2183178478255Q599.7088048545975 400.0741490062189 595.9969388610341 394.7246950743187Q592.3069073733151 389.3752411424184 592.3069073733151 383.08690345920513L592.3069073733151 383.08690345920513Q592.3069073733151 380.0955761585099 593.4204671713842 377.8247875506829Q594.5121924636087 375.5321644370114 597.0231606357252 374.5277771681648Q599.5341288078415 373.5015553934737 603.9446989884286 374.13475606296396L603.9446989884286 374.13475606296396Q603.4643398598498 375.5321644370114 603.3988363423164 377.1915868811926Q603.3114983189384 378.851009325374 603.4643398598498 380.72877682800015L603.4643398598498 380.72877682800015Q603.7918574475173 386.7114314293906 606.8486882657459 391.1001671041332Q609.9273535898191 395.51073728472034 615.4951525801641 398.02170545683674Q621.0847860763538 400.5326736289532 628.792366639459 400.5326736289532L628.792366639459 400.5326736289532Q638.8362393279247 400.5326736289532 645.211915034516 395.75091684900974Q651.5875907411073 390.9473255632218 651.5875907411073 381.3619774974904L651.5875907411073 381.3619774974904Q651.5875907411073 375.07363981427704 648.6617669579455 370.5975661161565Q645.7577776806282 366.0996579121914 640.1899786902832 362.1039433426496Q634.6003451940935 358.0863942672633 626.4342400082539 353.6976585925207L626.4342400082539 353.6976585925207Q617.4602581061683 348.5010462015319 610.6260577768428 343.8721309624999Q603.7918574475173 339.2213812176234 600.0144879364203 333.3260646396109Q596.2371184253234 327.4307480615984 596.2371184253234 319.1118013348474L596.2371184253234 319.1118013348474Q596.2371184253234 309.8321363509389 600.800530146822 304.2425028547493Q605.3639418683206 298.6747038644042 612.9841844080478 295.9890596455318Q620.604426947775 293.325249932504 629.5784088498607 293.325249932504L629.5784088498607 293.325249932504Q643.5524925903346 293.325249932504 652.198956904753 298.4345243001148Q660.8454212191714 303.54379866772564 660.8454212191714 312.82346365163414L660.8454212191714 312.82346365163414Q660.8454212191714 315.64011490557345 659.5135163626574 317.6052204315776Q658.1816115061434 319.57032595758176 654.557083535958 320.05068508616057L654.557083535958 320.05068508616057Q652.5264744924204 320.6838857556508 649.6879887326365 320.05068508616057L649.6879887326365 320.05068508616057Q650.1683478612154 318.32575912444577 650.0810098378374 316.57899865688654Q650.015506320304 314.8540726951718 649.6879887326365 313.4348298152799L649.6879887326365 313.4348298152799Q649.2294641099022 308.89325259962584 646.4783163734965 305.7490837580192Q643.7271686370907 302.60491491641255 639.0109153746806 300.85815444885327Q634.2946621122707 299.13322848713847 628.3120075108802 299.13322848713847L628.3120075108802 299.13322848713847Q623.5957542484703 299.13322848713847 618.9668390094382 300.63980939040835Q614.3160892645617 302.12455578783374 611.259258446333 305.57440771126323Q608.1805931222598 309.04609414053726 608.1805931222598 315.1815902828391L608.1805931222598 315.1815902828391Q608.1805931222598 321.46992796605247 611.3247619638664 325.946001664173Q614.4689308054731 330.42207536229364 620.1459023250407 334.1994448733905Q625.8010393387638 337.9768143844874 633.508619901869 342.2127085183186L633.508619901869 342.2127085183186Q641.9804081695313 346.6232786989057 648.9019465222349 351.5578770197606Q655.8234848749385 356.51430984646 659.9938754912362 362.8026475296733Q664.1642661075339 369.0909852128866 664.1642661075339 377.89029106821636L664.1642661075339 377.89029106821636Q664.1642661075339 383.23974500011656 662.2646640990632 388.34901936772735Q660.386896596437 393.4582937353382 655.9763264158498 397.4758428107245Q651.5875907411073 401.4715573802663 644.5787143650257 403.91702203484925Q637.5916724947888 406.3624866894322 627.5259653004786 406.3624866894322ZM691.8285850125036 406.03496910176483L691.8285850125036 406.03496910176483Q688.684416170897 406.03496910176483 686.6319726215148 404.0043600582272Q684.6013635779772 401.9519165088451 684.6013635779772 398.50206458541555L684.6013635779772 398.50206458541555L684.4266875312212 296.46941877411064Q684.4266875312212 293.17240839159257 686.1734479987805 291.4256479240333Q687.8983739604953 289.70072196231854 690.7150252144346 289.54788042140706L690.7150252144346 289.54788042140706Q693.7063525151298 289.3950388804957 695.9116376054234 290.4867641727202Q698.1169226957169 291.6003239707892 699.05580644703 292.3863661811909L699.05580644703 292.3863661811909Q697.7894051080496 296.62226031502206 697.3963840028487 302.36473535212315Q697.0033628976479 308.1072103892242 696.8505213567364 316.9065162445539L696.8505213567364 316.9065162445539L696.6976798158249 349.76744754051236L694.0338701027971 352.5840987944517Q694.8199123131988 343.1515922696317 698.6627853418291 336.4047299636841Q702.5056583704595 329.636033151892 708.6411545127614 326.0115051817065Q714.7766506550632 322.40881171736555 722.63707275908 322.40881171736555L722.63707275908 322.40881171736555Q735.6941072540853 322.40881171736555 741.7422653730092 330.7277584441165Q747.7904234919332 339.06853967671196 747.7904234919332 355.0950669665681L747.7904234919332 355.0950669665681L747.9432650328446 386.38391384172326Q747.9432650328446 390.466966434643 748.3362861380455 395.1177161795195Q748.7293072432462 399.7466314185515 749.8428670413152 403.2183178478255L749.8428670413152 403.2183178478255Q748.7293072432462 404.3100431400501 746.9170432581535 405.18342337382967Q745.1266137789053 406.03496910176483 742.5938111009444 406.03496910176483L742.5938111009444 406.03496910176483Q739.4496422593378 406.03496910176483 737.4845367333336 404.1572015991386Q735.5194312073294 402.25759959066795 735.5194312073294 399.1134307490613L735.5194312073294 399.1134307490613L735.366589666418 356.6671513873714Q735.366589666418 343.3044338105431 731.763896202077 336.3173919403061Q728.1393682318916 329.3303500700691 719.0125447888944 329.3303500700691L719.0125447888944 329.3303500700691Q715.257009783642 329.3303500700691 711.3267987316337 331.3609591136067Q707.3965876796254 333.41340266298886 704.0777427912628 337.736634820198Q700.7807324087447 342.0598669774072 698.8156268827406 349.1342468710221Q696.8505213567364 356.20862676463713 696.8505213567364 366.4271754998588L696.8505213567364 366.4271754998588Q696.8505213567364 375.8596820246787 696.8505213567364 381.9951781669806Q696.8505213567364 388.108839803438 697.0907009210258 392.0390508554463Q697.3308804853152 395.9692619074546 697.7239015905161 398.50206458541555Q698.1169226957169 401.01303275753196 699.05580644703 403.2183178478255L699.05580644703 403.2183178478255Q698.1169226957169 404.0043600582272 696.3046587106242 405.00874732707376Q694.4923947255314 406.03496910176483 691.8285850125036 406.03496910176483ZM802.8133782200497 406.3624866894322L802.8133782200497 406.3624866894322Q785.8261326730359 406.3624866894322 776.3281226306825 395.27055772043093Q766.8082780824845 384.17862875142964 766.8082780824845 364.37473195047664L766.8082780824845 364.37473195047664Q766.8082780824845 344.5708351495236 776.3281226306825 333.47890618052236Q785.8261326730359 322.40881171736555 802.8133782200497 322.40881171736555L802.8133782200497 322.40881171736555Q819.9534653079749 322.40881171736555 829.4514753503282 333.47890618052236Q838.9713198985262 344.5708351495236 838.9713198985262 364.37473195047664L838.9713198985262 364.37473195047664Q838.9713198985262 384.17862875142964 829.4514753503282 395.27055772043093Q819.9534653079749 406.3624866894322 802.8133782200497 406.3624866894322ZM802.8133782200497 400.68551516986463L802.8133782200497 400.68551516986463Q813.8179691656729 400.68551516986463 819.6259477203075 391.25300864504464Q825.4557607807865 381.82050212022466 825.4557607807865 364.37473195047664L825.4557607807865 364.37473195047664Q825.4557607807865 346.92896178072857 819.6259477203075 337.58379327928657Q813.8179691656729 328.2167902720001 802.8133782200497 328.2167902720001L802.8133782200497 328.2167902720001Q791.9616288153378 328.2167902720001 786.0663122373253 337.58379327928657Q780.1709956593128 346.92896178072857 780.1709956593128 364.37473195047664L780.1709956593128 364.37473195047664Q780.1709956593128 381.82050212022466 786.0663122373253 391.25300864504464Q791.9616288153378 400.68551516986463 802.8133782200497 400.68551516986463ZM900.2826123098561 322.40881171736555L900.2826123098561 322.40881171736555Q908.7762350833628 322.40881171736555 914.1256890152631 326.0115051817065Q919.4533084413189 329.636033151892 922.3791322244805 335.378508188993Q925.2831215017978 341.12098322609404 926.3748467940223 347.8023420145082Q927.4884065920913 354.4837008029224 927.4884065920913 360.59736243937976L927.4884065920913 360.59736243937976Q927.4884065920913 382.30086124880347 918.7546042542951 394.33167396911784Q910.020801916499 406.3624866894322 894.2999577084655 406.3624866894322L894.2999577084655 406.3624866894322Q886.2866940635375 406.3624866894322 880.7188950731924 403.0436418010696Q875.1292615770027 399.7466314185515 872.7711349457978 393.78581132300553L872.7711349457978 393.78581132300553L872.7711349457978 412.95650745446835Q872.7711349457978 416.2535178369865 872.9239764867092 420.6640880175736Q873.0768180276206 425.0528236923162 873.6445151795774 429.37605584952536Q874.1903778256897 433.69928800673455 874.82357849518 436.69061530742977L874.82357849518 436.69061530742977Q873.8628602380223 437.4766575178314 872.0724307587741 438.5028792925225Q870.2601667736814 439.52910106721356 867.574522554809 439.52910106721356L867.574522554809 439.52910106721356Q864.4303537132024 439.52910106721356 862.3124066462867 437.71683708212083Q860.1944595793711 435.9045730970281 860.1944595793711 432.60756271451L860.1944595793711 432.60756271451L860.3473011202826 340.7934656384267Q860.3473011202826 336.4047299636841 859.4084173689695 334.59246597859135Q858.4695336176563 332.7802019934986 855.95856544554 332.7802019934986L855.95856544554 332.7802019934986Q855.1725232351383 332.7802019934986 853.9061218961577 333.17322309869945Q852.6397205571774 333.5662442039003 851.8536783467757 335.1383286247036L851.8536783467757 335.1383286247036Q850.9147945954626 333.71908574481176 850.4562699727284 332.4745189116758Q849.9759108441496 331.2081175726953 849.9759108441496 330.1163922804708L849.9759108441496 330.1163922804708Q849.9759108441496 326.9722234388641 852.5742170396439 325.00711791285994Q855.1725232351383 323.0420123868558 859.4084173689695 323.0420123868558L859.4084173689695 323.0420123868558Q866.1771141807616 323.0420123868558 869.1466069756124 328.30412829537806Q872.1379342763075 333.5662442039003 872.1379342763075 342.99875072872027L872.1379342763075 342.99875072872027L872.1379342763075 357.30035205686164L868.688082352878 359.0252780185764Q869.7798076451026 351.1648559145598 872.1379342763075 344.4834971261456Q874.4960609075125 337.8021383377315 878.4262719595209 332.8675400168766Q882.3564830115291 327.9111071901772 887.7932749668074 325.15995945377136Q893.208232416241 322.40881171736555 900.2826123098561 322.40881171736555ZM897.1384434682494 330.1163922804708L897.1384434682494 330.1163922804708Q891.3304649136148 330.1163922804708 886.8325567096498 333.41340266298886Q882.3564830115291 336.7104130455069 879.2123141699225 342.452888082608Q876.0681453283158 348.19536311970904 874.4960609075125 355.5754260951469Q872.9239764867092 362.95548907058475 872.9239764867092 371.14342876226874L872.9239764867092 371.14342876226874Q872.9239764867092 376.79856577599185 873.710018697111 381.82050212022466Q874.4960609075125 386.864272970302 876.5485044568946 390.70714599893233Q878.5791135004323 394.5718535334072 882.2036414706178 396.7553041178563Q885.8281694408032 398.9605892081498 891.4833064545263 398.9605892081498L891.4833064545263 398.9605892081498Q902.4878974001496 398.9605892081498 908.295875954784 389.3752411424184Q914.1256890152631 379.789893076687 914.1256890152631 360.77203848613567L914.1256890152631 360.77203848613567Q914.1256890152631 355.42258455423547 913.4924883457728 349.9202890814238Q912.8592876762826 344.41799360861216 911.134361714568 340.00742342802505Q909.4094357528531 335.6186877532824 906.0905908644905 332.8675400168766Q902.7935804819725 330.1163922804708 897.1384434682494 330.1163922804708ZM1020.3942289603991 386.5367553826347L1020.3942289603991 386.5367553826347Q1020.3942289603991 390.466966434643 1017.5557432006154 394.09149440482844Q1014.739091946676 397.71602237501384 1009.7826591199768 400.4671701114197Q1004.8262262932773 403.2183178478255 998.4505505866861 404.7904022686289Q992.0967093859393 406.3624866894322 985.3280125741471 406.3624866894322L985.3280125741471 406.3624866894322Q965.6769573141056 406.3624866894322 954.6723663684822 391.82070579700144Q943.6677754228589 377.2789249045706 943.6677754228589 349.9202890814238L943.6677754228589 349.9202890814238Q943.6677754228589 322.40881171736555 954.8252079093937 307.8670308249348Q966.0044749017728 293.325249932504 986.1140547845488 293.325249932504L986.1140547845488 293.325249932504Q992.4023924677621 293.325249932504 998.0575294814852 294.56981676564Q1003.7345010010528 295.8362181046204 1008.057733158262 297.95416517153603Q1012.3809653154711 300.0721122384516 1014.8919334875876 302.9979360216133Q1017.4029016597041 305.9019252989306 1017.4029016597041 309.1989356814487L1017.4029016597041 309.1989356814487Q1017.4029016597041 312.0374214412325 1014.739091946676 314.30821004905954Q1012.0534477278037 316.57899865688654 1007.1843529244824 316.12047403415227L1007.1843529244824 316.12047403415227Q1005.9179515855019 307.7796928015568 1000.5029941360682 303.45646064434766Q995.0880366866344 299.13322848713847 986.2668963254602 299.13322848713847L986.2668963254602 299.13322848713847Q972.2928125849862 299.13322848713847 964.9782531270818 311.95008341785456Q957.6636936691774 324.76693834857053 957.6636936691774 349.9202890814238L957.6636936691774 349.9202890814238Q957.6636936691774 375.07363981427704 964.8909151037038 387.8031567216151Q972.1181365382303 400.5326736289532 985.9612132436374 400.5326736289532L985.9612132436374 400.5326736289532Q991.6163502573605 400.5326736289532 996.5727830840598 398.26188502112615Q1001.5292159107593 395.9692619074546 1005.0664058575668 391.42768469180055Q1008.6035958043742 386.864272970302 1009.8481626375102 380.24841769942134L1009.8481626375102 380.24841769942134Q1012.5338068563825 379.9427346175985 1014.8919334875876 380.48859726371074Q1017.2500601187925 381.034459909823 1018.8221445395958 382.4537027897149Q1020.3942289603991 383.8729456696068 1020.3942289603991 386.5367553826347ZM1101.0290590441032 405.8821275608534L1101.0290590441032 405.8821275608534Q1094.2821967381556 405.8821275608534 1090.8105103088815 401.25321232182137Q1087.360658385452 396.60246257694484 1087.360658385452 386.38391384172326L1087.360658385452 386.38391384172326L1087.360658385452 372.38799559540473L1090.3519856861471 373.8072384752966Q1087.6663414672748 383.23974500011656 1082.2513840178412 390.55430445802097Q1076.8364265684077 397.8688639159253 1069.5873706280368 401.9519165088451Q1062.36014919351 406.03496910176483 1053.8665264200035 406.03496910176483L1053.8665264200035 406.03496910176483Q1044.6086959419395 406.03496910176483 1039.4120835509507 401.07853627506546Q1034.215471159962 396.14393795421057 1034.215471159962 387.8031567216151L1034.215471159962 387.8031567216151Q1034.215471159962 381.3619774974904 1037.5998195658578 376.31820664741304Q1040.9841679717538 371.29627030318017 1046.8794845497664 367.8464183797506Q1052.7748011277788 364.37473195047664 1060.3295401499727 362.344122906939L1060.3295401499727 362.344122906939Q1066.9235609150087 360.59736243937976 1073.9106027852458 359.985996275734Q1080.9194791613272 359.3527956062438 1086.727457715962 359.6584786880666L1086.727457715962 359.6584786880666L1086.727457715962 355.5754260951469Q1086.727457715962 341.90702543649576 1082.1640459944633 334.9854870837922Q1077.622468778809 328.06394873108866 1066.7707193740973 328.06394873108866L1066.7707193740973 328.06394873108866Q1062.9933498630007 328.06394873108866 1059.1504768343702 329.24301204669115Q1055.2857692998955 330.42207536229364 1052.862139151157 333.0858850753215Q1050.4166744965737 335.77152929419384 1050.4166744965737 340.7934656384267L1050.4166744965737 340.7934656384267Q1050.4166744965737 343.93763448003335 1051.9887589173773 347.3219828859294Q1053.5608433381803 350.70633129182545 1057.185371308366 351.95089812496144L1057.185371308366 351.95089812496144Q1055.766128428474 353.6976585925207 1053.713684879092 354.3963627795444Q1051.6830758355545 355.0950669665681 1049.6306322861724 355.0950669665681L1049.6306322861724 355.0950669665681Q1044.1283368133604 355.0950669665681 1040.9841679717538 350.85917283273693Q1037.8399991301471 346.6232786989057 1037.8399991301471 341.2738247670055L1037.8399991301471 341.2738247670055Q1037.8399991301471 331.99415978309696 1046.0061043159867 327.190568497309Q1054.1940440076705 322.40881171736555 1067.8624446663218 322.40881171736555L1067.8624446663218 322.40881171736555Q1084.2164895438455 322.40881171736555 1091.8367320835728 330.7277584441165Q1099.4569746233 339.06853967671196 1099.4569746233 356.36146830554856L1099.4569746233 356.36146830554856L1099.4569746233 387.8031567216151Q1099.4569746233 396.14393795421057 1105.1339461428674 396.14393795421057L1105.1339461428674 396.14393795421057Q1106.3785129760035 396.14393795421057 1107.9505973968069 395.3578957438089Q1109.5226818176102 394.5718535334072 1110.3087240280117 392.82509306584797L1110.3087240280117 392.82509306584797Q1111.2476077793249 394.09149440482844 1111.6406288845258 395.42339926134235Q1112.0336499897267 396.7553041178563 1112.0336499897267 397.71602237501384L1112.0336499897267 397.71602237501384Q1112.0336499897267 401.16587429844344 1108.8894811481198 403.5240009296484Q1105.7453123065134 405.8821275608534 1101.0290590441032 405.8821275608534ZM1059.543497939571 397.2356632464351L1059.543497939571 397.2356632464351Q1064.0850751552252 397.2356632464351 1068.888666441013 394.48451551002927Q1073.692257726801 391.73336777362346 1077.7753103197206 387.1699560521249Q1081.8583629126404 382.6065443306263 1084.456669108135 376.79856577599185Q1087.0549753036294 370.9905872213573 1087.0549753036294 364.702249538144L1087.0549753036294 364.702249538144Q1083.4304473334437 364.37473195047664 1078.954373635323 364.702249538144Q1074.4782999372026 365.0079326199668 1070.220571297527 365.79397483036854Q1065.9846771636958 366.5800170407702 1062.6876667811775 367.8464183797506L1062.6876667811775 367.8464183797506Q1055.766128428474 370.3573865518671 1051.8359173764657 374.6806187090762Q1047.9057063244572 379.00385086628535 1047.9057063244572 385.13934700858727L1047.9057063244572 385.13934700858727Q1047.9057063244572 389.85560027099723 1050.5695160374853 393.6984732996276Q1053.2551602563576 397.541346328258 1059.543497939571 397.2356632464351ZM1134.5231910095517 405.729286019942L1134.5231910095517 405.729286019942Q1131.684705249768 405.729286019942 1129.501254665319 403.76418049393783Q1127.2959695750255 401.7990749679336 1127.2959695750255 398.32738853865965L1127.2959695750255 398.32738853865965L1127.2959695750255 340.48778255660386Q1127.2959695750255 335.92437083510526 1126.2697478003345 334.11210685001254Q1125.2435260256434 332.2998428649198 1122.8853993944385 332.2998428649198L1122.8853993944385 332.2998428649198Q1122.0993571840368 332.2998428649198 1120.8547903509007 332.7802019934986Q1119.5883890119203 333.26056112207743 1118.8023468015185 334.83264554288075L1118.8023468015185 334.83264554288075Q1116.9245792988925 332.4745189116758 1116.9245792988925 329.7888746928034L1116.9245792988925 329.7888746928034Q1116.9245792988925 326.64470585119676 1119.4355474710087 324.6140968076591Q1121.9465156431252 322.561653258277 1126.3570858237124 322.561653258277L1126.3570858237124 322.561653258277Q1132.3179059192585 322.561653258277 1135.462074760865 326.7975473921082Q1138.6062436024717 331.0552760317839 1138.4534020615602 339.7017403462022L1138.4534020615602 339.7017403462022L1138.4534020615602 350.07313062233527L1136.5756345589339 350.07313062233527Q1138.1477189797374 336.4047299636841 1144.1085390752833 329.3958535876026Q1150.0911936766738 322.40881171736555 1159.3708586605821 322.40881171736555L1159.3708586605821 322.40881171736555Q1167.3841223055103 322.40881171736555 1172.4060586497433 326.64470585119676Q1177.4498294998207 330.90243449087245 1177.4498294998207 338.76285659488906L1177.4498294998207 338.76285659488906Q1177.4498294998207 343.93763448003335 1174.6113437400368 347.2346448625515Q1171.7728579802529 350.553489750914 1168.170164515912 350.70633129182545L1168.170164515912 350.70633129182545Q1164.392795004815 350.85917283273693 1162.6678690431004 349.1342468710221L1162.6678690431004 349.1342468710221Q1164.5456365457267 346.1429195703269 1165.091499191839 343.8721309624999Q1165.6591963437954 341.57950784882837 1165.6591963437954 339.06853967671196L1165.6591963437954 339.06853967671196Q1165.6591963437954 334.0466033324791 1163.3010697125906 331.6884767012741Q1160.9429430813857 329.3303500700691 1156.5323729007985 329.3303500700691L1156.5323729007985 329.3303500700691Q1152.2964787669673 329.3303500700691 1148.4317712324926 332.93304353441005Q1144.588898203862 336.5575715045955 1142.230771572657 344.65817317290157Q1139.872644941452 352.7369403353631 1139.872644941452 366.4271754998588L1139.872644941452 366.4271754998588Q1139.872644941452 375.7068404837673 1139.872644941452 381.82050212022466Q1139.872644941452 387.9559982625266 1140.1128245057416 391.82070579700144Q1140.3311695641864 395.66357882563176 1140.7241906693873 398.17454699774817Q1141.1172117745882 400.68551516986463 1141.9032539849898 402.8908002601582L1141.9032539849898 402.8908002601582Q1140.9643702336766 403.8296840114713 1139.152106248584 404.7904022686289Q1137.3616767693356 405.729286019942 1134.5231910095517 405.729286019942ZM1212.9745705088067 406.03496910176483L1212.9745705088067 406.03496910176483Q1205.419831486613 406.03496910176483 1201.2494408703155 401.4060538627328Q1197.1008847598623 396.7553041178563 1197.1008847598623 388.58919893201676L1197.1008847598623 388.58919893201676L1197.1008847598623 310.61817856134064Q1197.1008847598623 307.3211681788225 1199.1314938033997 305.5089041937298Q1201.1839373527819 303.69664020863706 1204.4809477353 303.69664020863706L1204.4809477353 303.69664020863706Q1207.3194334950836 303.69664020863706 1209.0443594567987 304.72286198332813Q1210.7692854185134 305.7490837580192 1211.7081691698263 306.53512596842086L1211.7081691698263 306.53512596842086Q1210.2889262899344 310.9238616431635 1209.9832432081116 317.99824153677844Q1209.6775601262889 325.07262143039344 1209.6775601262889 337.19077217408574L1209.6775601262889 337.19077217408574L1209.6775601262889 387.8031567216151Q1209.6775601262889 391.73336777362346 1211.5553276289147 394.00415638145046Q1213.433095131541 396.296779495122 1217.2104646426378 396.296779495122L1217.2104646426378 396.296779495122Q1219.4157497329315 396.296779495122 1221.6210348232253 395.51073728472034Q1223.8263199135185 394.7246950743187 1224.6123621239203 392.9997691126039L1224.6123621239203 392.9997691126039Q1225.5512458752332 394.24433594573986 1225.9442669804343 395.5762408022538Q1226.337288085635 396.92998016461223 1226.337288085635 398.02170545683674L1226.337288085635 398.02170545683674Q1226.337288085635 401.4715573802663 1222.5599185745382 403.76418049393783Q1218.7825490634414 406.03496910176483 1212.9745705088067 406.03496910176483ZM1185.4630931447487 331.6884767012741L1185.4630931447487 331.6884767012741L1185.61593468566 328.06394873108866Q1185.7687762265716 326.33902276937386 1186.7949980012627 325.46564253559427Q1187.8212197759538 324.6140968076591 1189.0657866090896 324.6140968076591L1189.0657866090896 324.6140968076591L1216.1187393504133 324.6140968076591Q1216.751940019904 324.6140968076591 1218.6297075225298 324.5267587842811Q1220.507475025156 324.4394207609032 1222.8000981388277 324.3739172433697Q1225.0708867466547 324.2865792199918 1226.9704887551252 324.2210757024583Q1228.8482562577515 324.1337376790803 1229.4814569272417 324.1337376790803L1229.4814569272417 324.1337376790803L1229.3286153863305 327.58358960250985Q1229.1539393395742 329.3303500700691 1228.2150555882613 330.2692338213822Q1227.2761718369484 331.2081175726953 1225.8569289570564 331.2081175726953L1225.8569289570564 331.2081175726953L1194.8955996695686 331.2081175726953Q1193.3235152487653 331.2081175726953 1190.1793464071586 331.2954555960733Q1187.035177565552 331.3609591136067 1185.4630931447487 331.6884767012741Z " fill="#2563eb" transform="matrix(0.7116821866435185,0,0,0.7116821866435183,0,40.5711387539385)"/></g></svg>